<?xml version="1.0" encoding="UTF-8"?>
<svg id="_Слой_6" data-name="Слой 6" xmlns="http://www.w3.org/2000/svg" viewBox="0 0 566.93 566.93">
  <defs>
    <style>
      .cls-1 {
        fill: #104954;
      }

      .cls-2 {
        fill: #e4c6a0;
      }

      .cls-3 {
        fill: #f39200;
      }

      .cls-4 {
        fill: #5aa8a0;
      }

      .cls-5 {
        fill: #e27244;
      }

      .cls-6 {
        fill: #ffed00;
      }

      .cls-7 {
        fill: #e1c5a1;
      }
    </style>
  </defs>
  <g>
    <path class="cls-1" d="M391.63,509.12l-29.73-43.1c-.16-.23-.02-.56.27-.59,4.81-.58,9.62-1.06,14.45-1.49,4.83-.43,9.66-.81,14.5-1.18,9.67-.75,19.35-1.48,28.98-2.58.01,0,.03,0,.04,0,.03,0,.06.01.09.02.02,0,.04,0,.06.01.05.02.1.06.14.11l15.89,19.69c4.59-3.78,9.05-7.73,13.35-11.84l-19.26-26.31c-.34-.46-.54-1-.6-1.55-.06-.55.02-1.12.26-1.65l50.06-112.74s.01-.03.02-.04c0-.02.01-.03.02-.05.15-.48.21-.96.18-1.42-.03-.46-.14-.91-.32-1.33-.12-.28-.27-.54-.45-.78-.09-.12-.19-.24-.29-.35-.21-.22-.44-.42-.69-.59-.63-.43-1.39-.69-2.23-.7-2.89-.03-5.78-.07-8.67-.11-1.39-.02-2.78-.03-4.17-.05-2.74-.03-5.48-.06-8.22-.09-1.04-.01-2.08-.02-3.12-.03-3.54-.04-7.08-.07-10.62-.09-.49,0-.99,0-1.48,0-3-.02-6.01-.03-9.01-.03-1.09,0-2.19,0-3.28,0-2.36,0-4.72.01-7.07.03-1.05,0-2.1.01-3.15.02-3.35.03-6.69.07-10.03.12-.01,0-.03,0-.04,0-.05,0-.11,0-.17,0-.04,0-.08,0-.13,0-.1,0-.22,0-.34-.01-.16,0-.34-.01-.53-.02-.03,0-.06,0-.09,0-.2,0-.41,0-.64,0-.02,0-.04,0-.07,0-.19,0-.39,0-.59.01-.07,0-.14,0-.21,0-.17,0-.35.02-.54.03-.07,0-.14,0-.21.02-.25.02-.51.05-.77.08-.02,0-.05,0-.07.01-.23.03-.47.07-.71.12-.08.02-.16.03-.24.05-.19.04-.39.09-.58.14-.08.02-.16.04-.24.07-.26.08-.53.16-.78.27-.02,0-.04.02-.05.02-.24.1-.47.2-.7.32-.08.04-.15.08-.22.12-.18.1-.36.21-.53.32-.07.05-.14.09-.21.14-.23.17-.45.34-.66.54,0,0-.02.02-.02.03-.2.19-.38.4-.56.62-.06.07-.11.14-.16.22-.13.18-.25.37-.37.57-.05.08-.09.16-.14.25-.15.28-.28.58-.39.91l-49.55,99.51c-.06.13-.19.21-.34.21l-112.28.28h0c-.21,0-.41,0-.62.02-.17,0-.33,0-.5.02-.16.01-.32.04-.48.06-.16.02-.32.04-.47.07-.15.03-.3.07-.45.1-.15.04-.3.07-.45.11-.14.04-.28.09-.41.14-.14.05-.28.09-.42.15-.13.05-.25.11-.38.17-.13.06-.27.12-.39.19-.12.06-.23.13-.34.2-.12.07-.25.14-.37.22-.11.07-.21.15-.31.23-.11.08-.23.17-.34.26-.1.08-.19.17-.28.25-.1.1-.21.19-.31.29-.09.09-.17.18-.25.27-.1.11-.19.21-.28.32-.08.09-.15.2-.22.29-.09.11-.17.23-.25.35-.07.1-.13.21-.19.31-.08.12-.15.24-.22.37-.06.11-.11.21-.16.32-.07.13-.13.26-.19.4-.05.11-.09.22-.13.33-.06.14-.11.27-.16.42-.04.11-.07.23-.11.34-.04.14-.09.28-.13.43-.03.12-.05.23-.08.35-.03.15-.07.29-.1.44-.02.12-.04.24-.06.36-.02.15-.05.3-.07.45-.01.12-.02.24-.03.36-.01.15-.03.3-.03.45,0,.12,0,.24,0,.37,0,.15,0,.3,0,.45,0,.12.01.25.02.37,0,.15.01.29.03.44.01.13.03.25.05.37.02.14.03.29.06.43.02.12.05.25.08.37.03.14.05.28.09.42.03.12.07.24.1.36.04.14.07.28.12.41.04.12.09.24.13.36.05.13.09.26.15.39.05.12.11.24.16.36.06.12.11.25.17.37.06.12.13.23.2.35.06.11.13.23.2.34.07.11.15.22.23.33.07.11.14.22.22.32.08.11.17.21.26.31.08.1.16.2.24.29.1.1.2.2.3.3.09.09.17.18.26.26.11.1.23.19.34.28.09.07.18.15.27.22.13.09.26.18.4.26.09.06.18.12.27.18.15.09.31.16.47.24.09.04.17.09.26.13.25.11.51.22.78.3.45.15.98.3,1.57.47.6.16,1.26.33,1.96.5,1.41.34,3,.69,4.6,1.04,1.61.35,3.23.7,4.71,1.03.74.17,1.45.33,2.1.48.65.15,1.25.3,1.77.44,1.23.33,1.87,1.67,1.36,2.84l-19.05,43.57c-.05.12-.04.26.03.36.07.1.18.17.32.17h18.08c.07,0,.15-.02.21-.06.06-.04.11-.09.14-.16l17.93-40.35c.05-.12.12-.24.19-.34.02-.04.05-.07.07-.1.05-.07.1-.14.16-.2.03-.04.07-.07.1-.1.06-.06.12-.11.18-.16.04-.03.08-.06.12-.09.07-.05.13-.09.2-.13.04-.02.08-.05.12-.07.08-.04.16-.07.24-.1.04-.01.07-.03.11-.04.12-.04.24-.07.37-.09,0,0,.02,0,.03,0,.1-.01.21-.02.32-.02,0,0,.02,0,.03,0,.15,0,.3.01.45.05l69.98,14.21c.08.02.16.06.21.12,2.55,2.98,5.97,7.51,9.77,12.76.54.75,1.09,1.52,1.65,2.29.56.78,1.12,1.57,1.69,2.37.85,1.2,1.72,2.42,2.59,3.66.29.41.58.83.87,1.24.58.83,1.17,1.67,1.75,2.51.88,1.26,1.76,2.52,2.63,3.79,1.75,2.53,3.49,5.05,5.17,7.5.56.82,1.12,1.63,1.67,2.42.27.4.55.8.82,1.19.54.79,1.07,1.56,1.6,2.33.26.38.52.76.78,1.13.77,1.12,1.52,2.21,2.24,3.26.48.7.95,1.38,1.4,2.04.25.37.5.72.74,1.08,5.64-2.32,11.17-4.84,16.58-7.56ZM389.9,380.8l2.32-4.12c.07-.12.19-.19.33-.19h44.66c.26,0,.45.26.35.51l-1.55,4.12c-.06.15-.2.24-.35.24h-45.43c-.22,0-.37-.17-.38-.37,0-.06.01-.13.05-.19ZM368.52,424.72l2.37-4.73c.03-.06.08-.12.14-.15.06-.04.13-.06.2-.06h46.41c.07,0,.13.02.19.05.16.09.24.31.15.5l-2.37,4.73c-.06.13-.19.21-.34.21h-46.41c-.21,0-.36-.17-.38-.35,0-.06,0-.13.04-.19Z"/>
    <g>
      <path class="cls-5" d="M224.94,171.79c0,15.73-10.23,28.54-22.22,36.91,0,0-18.27-1.12-23.73-1.13-7.59-.01-28.48,1.05-28.48,1.05-11.08-8.46-18.23-21.81-18.23-36.83,0-25.59,20.74-46.33,46.33-46.33s46.33,20.74,46.33,46.33Z"/>
      <path class="cls-6" d="M159.36,395.92c54-23.62,162.79-47.95,153.96-76.35-3.77-12.11-37.23-25.87-37.23-25.87,0,0-59.82-19.07,15.14-39.12,54.26-14.51,201.92-16.41,201.92-16.41,0,0-167.21-17.04-279.53-14.51-97.77,2.2-143.9,9.44-162.63,13.53-4.53,18.42-6.95,37.67-6.95,57.48,0,60.02,22.04,114.9,58.47,156.97,0-5.58,2.95-32.15,56.84-55.73Z"/>
      <path class="cls-4" d="M159.36,395.92c54-23.62,162.79-47.95,153.96-76.35-3.77-12.11-37.23-25.87-37.23-25.87,0,0-59.82-19.07,15.14-39.12,54.26-14.51,201.92-16.41,201.92-16.41,0,0-167.21-17.04-279.53-14.51-97.77,2.2-143.9,9.44-162.63,13.53-4.53,18.42-6.95,37.67-6.95,57.48,0,60.02,22.04,114.9,58.47,156.97,0-5.58,2.95-32.15,56.84-55.73Z"/>
      <path class="cls-7" d="M367.67,519.49c-8.23-11.96-16.47-23.93-24.7-35.89-1.97-2.86-4-5.78-6.82-7.81-3.49-2.51-7.84-3.41-12.05-4.25-17.37-3.47-34.74-6.94-52.11-10.42-4.41,10.09-8.81,20.18-13.22,30.27-1.09,2.5-2.22,5.06-4.11,7.04-4.7,4.92-12.45,4.84-19.24,4.4-5.32-.34-12.03-1.86-12.92-7.11-.39-2.28.56-4.56,1.49-6.68,5.17-11.81,10.33-23.62,15.5-35.43-8.15.16-16.54-4.12-20.17-11.42-3.63-7.3-1.49-17.31,5.43-21.62,4.66-2.9,10.48-3,15.97-3.01,33.82-.06,67.64-.12,101.46-.19,15.4-30.95,30.81-61.9,46.21-92.85,1.81-3.63,3.77-7.44,7.21-9.6,3.52-2.21,7.94-2.27,12.1-2.25,21.29.06,42.59.12,63.88.18,4.96.01,10.59.32,13.78,4.12,4.12,4.89,1.7,12.27-.9,18.11-15.47,34.78-30.95,69.56-46.42,104.34,5.69,7.78,11.39,15.57,17.08,23.35-.1-.14,10.14-11.01,11.05-12.09,3.61-4.24,7.06-8.61,10.35-13.1,6.58-8.98,12.53-18.43,17.79-28.24,10.55-19.64,18.39-40.72,23.31-62.46,4.92-21.72,6.91-44.12,5.72-66.37-.3-5.56-.79-11.11-1.49-16.63-.35-2.76-.75-5.52-1.2-8.27-.22-1.32-.45-2.64-.68-3.95-.36-1.97-.12-2.27-2.11-2.45-6.87-.62-14.04-.14-20.94-.19s-13.97-.08-20.95-.08c-27.9.02-55.83.58-83.66,2.74-16.95,1.31-33.86,3.21-50.64,5.92-13.89,2.24-28.12,5.22-39.73,13.17-2.88,1.97-5.87,5.37-4.4,8.54.66,1.44,2.09,2.34,3.47,3.13,18.37,10.51,40.54,14.53,56.44,28.5,2.8,2.46,5.46,5.39,6.26,9.03,1.57,7.15-4.41,13.6-10.16,18.14-52.59,41.61-125.1,47.98-182.7,82.33-10.16,6.06-20.02,13.17-26.77,22.89-6.75,9.72-10.01,22.46-6.13,33.64,4.21,12.12,15.65,20.1,26.86,26.35,61.15,34.09,137.33,40.88,202.84,16.19Z"/>
      <path class="cls-2" d="M392.89,470.27c-5.86.45-11.83.91-17.79,1.47l23.34,33.83c11.21-6.1,21.87-13.07,31.91-20.82l-13.36-16.56c-8.08.84-16.2,1.47-24.1,2.08Z"/>
      <path class="cls-6" d="M435.66,381.36h0c.16,0,.3-.1.35-.24-.06.15-.2.24-.35.24Z"/>
      <path class="cls-6" d="M435.66,381.36h0c.16,0,.3-.1.35-.24-.06.15-.2.24-.35.24Z"/>
      <path class="cls-6" d="M420.29,460.21s-.04,0-.06-.01c.02,0,.04,0,.06.01Z"/>
      <path class="cls-6" d="M420.29,460.21s-.04,0-.06-.01c.02,0,.04,0,.06.01Z"/>
      <path class="cls-3" d="M420.43,460.32s-.09-.08-.14-.11c.05.02.1.06.14.11Z"/>
      <path class="cls-3" d="M420.1,460.18s.09,0,.14.02c-.03,0-.06-.02-.09-.02-.01,0-.03,0-.04,0Z"/>
    </g>
  </g>
  <g>
    <path class="cls-1" d="M291.21,212.75c5.16-4.32,10.74-8.16,15.91-12.47,23.73-19.75,44.03-44.42,60.9-70.19l9.5-15.65c-1.74,5.12-4.55,10.44-7.14,15.24-16.5,30.52-39.94,56.72-68.41,76.53-3.33,2.32-7.07,4.98-10.76,6.54Z"/>
    <path class="cls-1" d="M312.9,214.14c2.78-2.05,6.42-3.31,9.54-4.99,21.51-11.6,42.89-28.3,59.47-46.23,2.91-3.15,5.37-6.84,8.53-9.7-8.13,16.92-24.07,30.71-39.36,41.18-11.79,8.07-24.73,14.89-38.18,19.74Z"/>
    <path class="cls-1" d="M426.45,123.82c0,18.82-12.45,35.03-30.34,42.3-1.6.65-3.24,1.22-4.92,1.73,4.87-7.72,7.67-16.84,7.67-26.59,0-3.73-.41-7.36-1.19-10.86-2.66-11.98-9.64-22.36-19.25-29.52h0c-8.61-6.41-19.33-10.2-30.96-10.2-3.26,0-6.46.3-9.56.87,9.36-8.72,22.49-14.14,37.03-14.14,22.94,0,42.36,13.49,49.04,32.14,1.61,4.5,2.48,9.29,2.48,14.26Z"/>
    <path class="cls-1" d="M374.24,102.25c-10.96,4.1-20.13,11.78-26.03,21.59-4.06-8.88-10.65-16.4-18.87-21.67.73-1.25,1.53-2.47,2.39-3.65,5.35-1.86,11.11-2.87,17.11-2.87,9.24,0,17.91,2.4,25.4,6.6Z"/>
  </g>
</svg>